<svg xmlns="http://www.w3.org/2000/svg" width="300" height="300"
    viewBox="0 0 225 225" preserveAspectRatio="xMidYMid meet" xmlns:v="https://vecta.io/nano">
    <path
        d="M102.5 20.3c-15.2 5.1-25.6 17.4-27.1 32.3-.6 5.5-.4 6.2 2.1 9.2 2.2 2.7 3.4 3.2 6.9 3.2 5.6 0 8.4-2.9 9.2-9.6.9-6.6 3.8-11.5 8.6-14.7 7.9-5.1 16.4-4.3 23.1 2.1 5.4 5.1 5.7 6.6 5.7 27.1v19l-31.2.3-31.3.3-4.7 2.8c-5.2 3-8.9 7.4-10.7 12.6-.7 2.3-1.1 15.5-1.1 41 0 41.5.1 42 6.6 48.5 6.6 6.6 6.4 6.6 53.9 6.6s47.3 0 53.9-6.6c6.5-6.5 6.6-7 6.6-49v-38l-2.7-5.5c-3.2-6.3-9.7-11.2-16.1-12.3l-4-.6-.4-20.7-.3-20.8-3.1-6.5c-6.2-13.1-18.2-21.1-32.3-21.7-4.5-.2-9.2.3-11.6 1zM121 124c11 5.6 13.4 19.7 5 29.3-2.2 2.5-4 5.6-4 6.9 0 2.7-2.6 6.1-5.9 7.8-5.3 2.7-13.1-1.9-13.1-7.7 0-1.5-1.6-4.4-4-7-4.3-4.9-5.5-9-4.7-15.9 1.3-12 15.6-19.1 26.7-13.4z" />
</svg>